<svg xmlns="http://www.w3.org/2000/svg" width="20" height="16" viewBox="0 0 20 16" fill="none">
  <path d="M8 8H6V10H4V8H2V6H4V4H6V6H8V8ZM15 8.5C15 7.67 14.33 7 13.5 7C12.67 7 12 7.67 12 8.5C12 9.33 12.67 10 13.5 10C14.33 10 15 9.33 15 8.5ZM18 5.5C18 4.67 17.33 4 16.5 4C15.67 4 15 4.67 15 5.5C15 6.33 15.67 7 16.5 7C17.33 7 18 6.33 18 5.5ZM14.97 1.15L10.47 3.68L9.98 3.95L9.49 3.68L4.99 1.15L1 3.39V9.82L9.98 14.86L18.96 9.82V3.39L14.97 1.15ZM14.97 0L19.96 2.8V10.4L9.98 16L0 10.4V2.8L4.99 0L9.98 2.8L14.97 0Z" fill="white"/>
</svg>