<svg xmlns="http://www.w3.org/2000/svg" width="20" height="14" viewBox="0 0 20 14" fill="none">
  <path d="M8.00003 4.35L13 7L8.00003 9.65V4.35ZM10 1C7.47427 0.950847 4.94814 1.07782 2.44003 1.38C2.18725 1.4509 1.95696 1.58564 1.77132 1.77129C1.58568 1.95693 1.45093 2.18722 1.38003 2.44C1.11214 3.94492 0.984927 5.4715 1.00003 7C0.984927 8.5285 1.11214 10.0551 1.38003 11.56C1.45093 11.8128 1.58568 12.0431 1.77132 12.2287C1.95696 12.4144 2.18725 12.5491 2.44003 12.62C4.94814 12.9222 7.47427 13.0492 10 13C12.5258 13.0492 15.0519 12.9222 17.56 12.62C17.8128 12.5491 18.0431 12.4144 18.2287 12.2287C18.4144 12.0431 18.5491 11.8128 18.62 11.56C18.8879 10.0551 19.0151 8.5285 19 7C19.0151 5.4715 18.8879 3.94492 18.62 2.44C18.5491 2.18722 18.4144 1.95693 18.2287 1.77129C18.0431 1.58564 17.8128 1.4509 17.56 1.38C15.0519 1.07782 12.5258 0.950847 10 1ZM10 0C10 0 16.25 8.9407e-08 17.81 0.42C18.2341 0.534356 18.6208 0.758008 18.9314 1.06861C19.242 1.37921 19.4657 1.76589 19.58 2.19C19.8697 3.77673 20.0103 5.38708 20 7C20.0103 8.61292 19.8697 10.2233 19.58 11.81C19.4657 12.2341 19.242 12.6208 18.9314 12.9314C18.6208 13.242 18.2341 13.4656 17.81 13.58C16.25 14 10 14 10 14C10 14 3.75003 14 2.19003 13.58C1.76592 13.4656 1.37925 13.242 1.06865 12.9314C0.758043 12.6208 0.53439 12.2341 0.420035 11.81C0.130393 10.2233 -0.0102195 8.61292 3.44984e-05 7C-0.0102195 5.38708 0.130393 3.77673 0.420035 2.19C0.53439 1.76589 0.758043 1.37921 1.06865 1.06861C1.37925 0.758008 1.76592 0.534356 2.19003 0.42C3.75003 8.9407e-08 10 0 10 0Z" fill="white"/>
</svg>