<svg xmlns="http://www.w3.org/2000/svg" width="20" height="16" viewBox="0 0 20 16" fill="none">
<path d="M12 7.99998C12 9.09998 11.1 9.99998 10 9.99998C8.9 9.99998 8 9.09998 8 7.99998C8 6.89998 8.9 5.99998 10 5.99998C11.1 5.99998 12 6.89998 12 7.99998ZM6.48 4.44998L5.77 3.74998C4.68 4.82998 4 6.33998 4 7.99998C4 9.65998 4.68 11.17 5.77 12.25L6.48 11.54C5.57 10.64 5 9.38998 5 7.99998C5 6.60998 5.57 5.35998 6.48 4.44998ZM14.23 3.74998L13.52 4.45998C14.43 5.35998 15 6.60998 15 7.99998C15 9.38998 14.43 10.64 13.52 11.55L14.23 12.26C15.32 11.17 16 9.65998 16 7.99998C16 6.33998 15.32 4.82998 14.23 3.74998ZM3.65 1.62998L2.95 0.919983C1.13 2.72998 0 5.23998 0 7.99998C0 10.76 1.13 13.27 2.95 15.08L3.66 14.37C2.02 12.74 1 10.49 1 7.99998C1 5.50998 2.02 3.25998 3.65 1.62998ZM17.05 0.919983L16.34 1.62998C17.98 3.25998 19 5.50998 19 7.99998C19 10.49 17.98 12.74 16.35 14.37L17.06 15.08C18.87 13.27 20 10.76 20 7.99998C20 5.23998 18.87 2.72998 17.05 0.919983Z" fill="white"/>
</svg>